<svg xmlns="http://www.w3.org/2000/svg" version="1.1" xmlns:xlink="http://www.w3.org/1999/xlink" xmlns:svgjs="http://svgjs.dev/svgjs" width="100" height="100"><svg xmlns="http://www.w3.org/2000/svg" viewBox="0 0 100 100"><path fill="#60be92" d="m17.449 27.831 30.27-13.955h4.247l30 13.753.337 1.146-32.224 13.231-33.034-13.433z"></path><path fill="#eba272" d="m75.095 38.409-2.499 1.042.067 3.631 2.671-.937z"></path><path fill="#eba272" d="m82.79 56.947.195 8.451c.123 5.349 1.379 6.658-1.183 7.736l-16.787 8.022-2.764 1.416-12.337 5.124.067-1.146c0-2 .419-3.53.449-6.604v-10l-.319-17.711.337-7.483 9.535-3.862.001 3.599 2.564-1.027 2.549-1.021 7.56-3.029.047 3.555 7.459-3.019 1.936-.724.44 6.909.166 7.183.085 3.631z"></path><path fill="#60be92" d="M75.786 31.464c3.524-1.385 7.531-5.528 7.646-.517l-.791 8.008-2.476.994-5.041 2.074v-3.438l-2.461.843.043 3.541-2.515 1.018-5.07-1.55-2.571 1.027-2.564 1.027-2.578 1.033-2.593 1.039-2.608 1.045-2.103.843c.839-4.317-.751-7.293 2.329-8.503l10.098-3.273 2.532-.995 10.723-4.216z"></path><path fill="#b07454" d="m72.719 43.025 5.015-2.03 2.487-1.006 2.472-1.001.073 3.54-2.481 1.014-2.495 1.02-.107.044.053 3.364-2.547 1.051-.044-3.377-2.388.976zM56.247 54.396l-2.598 1.062-.008 3.693 2.607-1.076zm4.308-10.132-2.529 1.01-.008 3.612 2.604-1.167zm7.078-2.838-.029-3.557 2.511-.996.038 3.543.038 3.569-2.529 1.024-2.405.949-.105-3.531z"></path><path fill="#b07454" d="m65.27 45.937-2.535 1.106-.013 3.567 2.568-1.05z"></path><path fill="#eba272" d="M65.118 38.825 62.56 39.86l.011 3.638 2.567-1.05z"></path><path fill="#b07454" d="m53.008 47.257-2.559 1.035.011 3.637 2.568-1.049zm22.19 1.734-2.563 1.027.001 3.625 2.573-1.041z"></path><path fill="#b07454" d="m52.998 43.646 2.608-1.045 2.594-1.039-.009 3.64-7.854 3.178.038-3.682zm29.014 10.341-2.494 1.05.076 3.644 2.502-1.065zm-2.569-2.567-2.498 1.042.066 3.631 2.507-1.056z"></path><path fill="#a3a3cd" d="m78.241 63.318-2.54 1.091.058 3.727 2.549-1.106z"></path><path fill="#b07454" d="m55.93 76.471 2.57-1.104.049 3.741-2.579 1.119-2.594 1.126-.031-3.772zM75.642 60.71l-2.545 1.083.049 3.714 2.555-1.098zm-16.736-3.712 2.622-1.083-.008 3.721-2.632 1.097-2.648 1.105.028-3.751z"></path><path fill="#a3a3cd" d="m68.03 48.415-2.617 1.092-.009 3.748 2.627-1.106z"></path><path fill="#b07454" d="m60.974 70.679-2.571 1.073.02 3.703 2.581-1.087zm-5.261-5.448-2.605 1.109.011 3.774 2.615-1.124zm8.396-6.76-2.602 1.085.001 3.733 2.612-1.1zm-10.99 11.643-2.631 1.13.001 3.818 2.641-1.146zm17.412.27.029-3.807 2.658-1.119-.019 3.792-.019 3.82-2.677 1.15-2.694 1.158.039-3.852z"></path><path fill="#b07454" d="m65.251 76.34 2.558-1.122.069 3.767-2.568 1.137-2.583 1.143-.05-3.798z"></path><path fill="#a1d3a2" d="m79.536 32.845-2.464.987.064 3.528 2.473-1.001zm-6.956 3.063-2.469.979.055 3.516 2.478-.993z"></path><path fill="#eba272" d="m17.203 56.947-.195 8.451c-.123 5.349-1.379 6.658 1.183 7.736l16.787 8.022 2.764 1.416 12.337 5.124-.067-1.146c0-2-.419-3.53-.449-6.604v-10l.623-17.712-2.369-.959-2.618-1.06-2.603-1.053-.017-7.252-2.569-1.019-.001 3.599-2.564-1.027-2.549-1.021-7.56-3.029-.047 3.555-7.459-3.019-.148 7.105-2.229-.92-.166 7.183-.084 3.63z"></path><path fill="#60be92" d="M24.208 31.464c-3.524-1.385-7.531-5.528-7.646-.517l.891 15.187 2.229.92.074-3.565.074-3.54 4.959 2.007 2.5 1.012 2.515 1.018 5.073 2.053 2.558 1.035.01-3.611 2.564 1.027 2.578 1.033 2.593 1.039 2.608 1.045 2.103.843c-.839-4.317.751-7.293-2.329-8.503l-10.098-3.273-2.532-.995-10.724-4.215z"></path><path fill="#b07454" d="m29.802 43.985-5.015-2.029-2.486-1.007-2.472-1-.074 3.54-.074 3.565 2.49 1.028.065-3.579 2.495 1.02.107.044-.052 3.364 2.547 1.051.044-3.378 2.387.976zm10.203 7.782 2.598 1.062.008 3.693-2.607-1.077zm.004-10.876 2.569 1.019.008 3.613-2.578-1.033zm-7.649.535.029-3.557-2.511-.996-.038 3.543-.038 3.569 2.53 1.024 2.543 1.029.02-3.596zm2.515 4.612 2.558 1.036-.01 3.637-2.568-1.05zm2.569-2.575 2.564 1.027-.002 3.625-2.573-1.041zm10.344 4.144-2.609-1.045-2.593-1.039.008 3.639 2.603 1.054.018 3.68 2.628 1.075-.028-3.696 2.634 1.066-.038-3.683zm-30.75 5.605 2.493 1.05-.076 3.643-2.502-1.064zm2.568-2.567 2.499 1.042-.066 3.631-2.508-1.056z"></path><path fill="#a3a3cd" d="m21.905 62.661 2.54 1.091-.059 3.727-2.549-1.107z"></path><path fill="#b07454" d="m29.569 65.954-2.57-1.104-.049 3.741 2.579 1.119 2.595 1.126.03-3.772zm-5.066-5.901 2.545 1.083-.049 3.714-2.554-1.098zm20.73-2.448-2.622-1.083.009 3.72 2.632 1.098 2.647 1.104-.028-3.75z"></path><path fill="#a3a3cd" d="m40.003 59.151 2.617 1.091.008 3.749-2.626-1.106z"></path><path fill="#b07454" d="m32.244 55.915 2.571 1.073-.02 3.703-2.581-1.087zm2.53 8.507 2.606 1.109-.011 3.774-2.615-1.124zm2.628-6.356 2.601 1.085-.001 3.734-2.611-1.1zm-.033 11.239L40 70.435l-.002 3.818-2.64-1.145zm9.587.725-.028-3.807-2.658-1.119.019 3.792.019 3.82 2.677 1.151.029 3.865 2.704 1.173-.039-3.881-.039-3.852zm-22.629 1.405-2.558-1.121-.069 3.767 2.568 1.136 2.582 1.143.051-3.797z"></path><path fill="#a1d3a2" d="m19.902 36.434 2.463.988-.064 3.527-2.472-1z"></path><path fill="#a1d3a2" d="m22.429 33.919 2.469.979-.055 3.516-2.478-.992z"></path><path fill="none" stroke="#000" stroke-linecap="round" stroke-linejoin="round" stroke-miterlimit="10" stroke-width="2" d="m52.483 14.129 28.172 12.806c1.428.648 2.345 2.072 2.345 3.641v39.849c0 1.569-.917 2.992-2.345 3.641L52.483 86.871c-1.578.717-3.388.717-4.966 0L19.345 74.066C17.917 73.417 17 71.993 17 70.424V30.576c0-1.569.917-2.992 2.345-3.641l28.172-12.806c1.578-.718 3.388-.718 4.966 0z"></path><path fill="none" stroke="#000" stroke-linecap="round" stroke-linejoin="round" stroke-miterlimit="10" d="M50 42.025v45M18 29l32 13 32-13m-57.067 5.809-.068 3.674-2.461-1.045-.101 3.472m-4.955 5.056 2.832 1.079v-6.843l7.348 2.739m2.225-2.435.101-3.809 2.461.91-.034 3.708 2.629.943-.135 3.776 2.798 1.045.101-3.708 2.191.809.101-3.405 2.596.978-.101 3.64 5.09 1.989m-17.798-5.098-.025 1.517"></path><path fill="none" stroke="#000" stroke-linecap="round" stroke-linejoin="round" stroke-miterlimit="10" d="m20.02 46.996 2.283.858.068-3.236 2.393.91-.067 3.405 2.595 1.011.169-3.438 2.123.876m5.225 2.326 2.718.944.05-3.868m4.884-1.391-.068 3.573 2.663 1.214-.101 3.607 2.832 1.179.067-3.674 2.124.674 3.05-1.086-.02-3.623 5.018-1.983-.008 3.612 2.604-1.167-.067-3.455m-43.476 8.949 3.033 1.147.135-3.405 1.82.742m10.113 7.854 2.553 1.087.076-3.666m5.208-5.183v3.641l2.579 1.112-.026-3.767m5.301 5.95v3.674l-1.231-.489m-6.64.927V59.18l2.317.965m1.644.67.998.391M21.815 66.36l2.561 1.095.068-3.691 2.562 1.079.033-3.674-2.528-1.079m2.444 8.494 5.174 2.259v-3.809m2.629 1.129 2.613 1.129v3.792m6.918-7.972.026 7.61 2.654 1.163.076 3.843m-25.357-3.54.076-3.868 2.604 1.138m1.553.664.95.448m.021 1.712-.01.952"></path><path fill="#a1d3a2" d="m27.68 29.331-2.527-.978 2.527-.978 2.527.978-2.527.978zm4.989.034-2.527-.978 2.527-.978 2.527.978-2.527.978zm6.539-5.629-2.527-.978 2.527-.978 2.527.978-2.527.978zm4.989.034-2.527-.978 2.527-.978 2.527.978-2.527.978z"></path><path fill="#a1d3a2" d="m41.736 24.73-2.527-.978 2.527-.978 2.527.978-2.527.978zm6.034 12.017-2.527-.978 2.527-.978 2.527.978-2.527.978zm4.988.034-2.527-.978 2.527-.978 2.527.978-2.527.978zm18.86-7.736-2.527-.978 2.527-.978 2.527.978-2.527.978zm-23.806 5.756-2.527-.978 2.527-.978 2.527.978-2.527.978zm7.963-13.458-2.527-.978 2.527-.978 2.527.978-2.527.978zm-5.764-2.579-2.527-.978 2.527-.978 2.527.978-2.527.978z"></path><path fill="#a1d3a2" d="m53.315 22.303-2.527-.978 2.527-.978 2.527.978-2.527.978z"></path><path fill="#a1d3a2" d="m55.843 23.264-2.527-.978 2.527-.978 2.527.978-2.527.978zM40.472 28.32l-2.527-.978 2.527-.978 2.527.978-2.527.978z"></path><path fill="#a1d3a2" d="m45.275 28.371-2.527-.978 2.527-.978 2.527.978-2.527.978z"></path><path fill="#a1d3a2" d="m47.753 27.41-2.527-.978 2.527-.978 2.527.978-2.527.978zm5.258 3.068-2.526-.978 2.527-.978 2.527.978-2.528.978z"></path><path fill="#a1d3a2" d="m50.551 31.421-2.527-.978 2.527-.978 2.527.978-2.527.978z"></path><path fill="#a1d3a2" d="m55.539 31.404-2.527-.978 2.527-.978 2.527.978-2.527.978zm7.332-4.55-2.527-.978 2.527-.978 2.527.978-2.527.978z"></path><path fill="#a1d3a2" d="m58.067 32.365-2.527-.978 2.527-.978 2.527.978-2.527.978zm4.804-3.59-2.527-.978 2.527-.978 2.527.978-2.527.978z"></path><path fill="none" stroke="#000" stroke-linecap="round" stroke-linejoin="round" stroke-miterlimit="10" d="m58.026 45.274.025-3.622-5.545 2.224m8.349.292 1.716-.67-.011-3.638 2.558-1.035.02 3.623 2.495-1.022-.029-3.557 2.507-.982.08 7.098-4.921 1.952.02 3.623-2.568 1.05m19.379-11.385-6.977 2.797v-3.438l-2.48.826-.064-3.502-2.469.979m9.425-4.042.073 3.514-2.473 1.001m-4.417 5.665.038 3.595 2.388-.976.053 3.347-2.563 1.027.001 3.625m-4.606-5.228.001 3.734-2.627 1.106m12.332-5.285-.053-3.364m2.092-.831 2.991-1.247m-5.821 9.934.066 3.631 2.507-1.056.076 3.644m-25.945-3.223-.008 3.693 2.627-1.064-.028 3.751 2.282-1.023m.304-3.856 2.702-1.044-.021 3.641 2.602-1.085.011 3.718-2.612 1.1M50.489 75.062l2.641-1.146-.011-3.802 2.615-1.124-.021-3.759m-2.337 16.122 5.173-2.245-.126-3.653 2.581-1.087-.03-3.689m1.753 10.586-.05-3.798 1.424-.624m2.09-1.012 1.618-.613.039-3.692 2.683-1.142.029-3.807m2.537-4.784 2.545-1.083.059 3.699 2.54-1.091.067 3.712M25.153 28.354l2.527.977 2.462-.943 2.527.977m7.803-3 2.526.978 4.755-1.888 2.526.978m-2.467 6.413-2.527.977 2.527.978m2.42 1.002 2.526.978 2.527-.978m-7.261-5.359 2.527.977 2.462-.994 1.97.758m-8.26-8.393-2.526-.977-2.461.96-2.528-.994-2.527.977m19.162.506-5.055-1.938 4.987-1.938m-8.29-1.601 2.526-.978 2.527.978m7.806 10.011 2.527.977 2.526-.977m-8.366 4.171 1.036.396 2.527-.977m11.024-4.298 2.526.977-2.526.978"></path></svg><style>@media (prefers-color-scheme: light) { :root { filter: none; } }
@media (prefers-color-scheme: dark) { :root { filter: none; } }
</style></svg>